<svg xmlns="http://www.w3.org/2000/svg" width="320" height="80" viewBox="0 0 320 80" role="img" aria-label="AskTheDocs logo (dark)">
  <defs>
    <linearGradient id="g" x1="0" y1="0" x2="1" y2="1">
      <stop offset="0%" stop-color="#93C5FD"/>
      <stop offset="100%" stop-color="#67E8F9"/>
    </linearGradient>
  </defs>
  <!-- Caixa com gradiente mais claro para destacar em fundo escuro -->
  <rect rx="12" ry="12" x="8" y="8" width="64" height="64" fill="url(#g)"/>
  <!-- Ãcone de "documento" em alto contraste -->
  <path d="M28 26h24a2 2 0 0 1 2 2v20a2 2 0 0 1-2 2H28a2 2 0 0 1-2-2V28a2 2 0 0 1 2-2zm2 4v16h20V30H30zm0 0l6-4h12l6 4" fill="#0B1220" fill-opacity="0.95"/>
  <!-- Tipografia clara para contraste no tema escuro -->
  <text x="88" y="50" font-family="Inter, Segoe UI, Roboto, Arial, sans-serif" font-size="28" font-weight="700" fill="#FFFFFF">Ask</text>
  <text x="145" y="50" font-family="Inter, Segoe UI, Roboto, Arial, sans-serif" font-size="28" font-weight="700" fill="#A5B4FC">The</text>
  <text x="195" y="50" font-family="Inter, Segoe UI, Roboto, Arial, sans-serif" font-size="28" font-weight="700" fill="#FFFFFF">Docs</text>
</svg>

